# xmcd
#
# Track frame offsets:
#	150
#	14085
#	30811
#	43788
#	53499
#	73062
#	85184
#	95752
#	111219
#	123508
#	137301
#	150892
#	163603
#	176139
#	191662
#	205039
#	222925
#	235030
#	246579
#	259423
#	272027
#	286390
#	302136
#	315242
#
# Disc length: 4369 seconds
#
# Revision: 0
# Processed by: cddbd v1.5.1PL0 Copyright (c) Steve Scherf et al.
# Submitted via: EasyCDDAExtractor 8.0.2.1
#
DISCID=51110f18
DTITLE=Roger Williams - Till/Near You
DYEAR=2002
DGENRE=Acid
TTITLE0=Till
TTITLE1=April Love
TTITLE2=Arrivederci Roma
TTITLE3=Que Sera, Sera
TTITLE4=Jalousie
TTITLE5=The High And Mighty
TTITLE6=Fascination
TTITLE7=Tammy
TTITLE8=The Sentimental Touch
TTITLE9=Oh, My Papa
TTITLE10=Brahm's A Flat Waltz
TTITLE11=Moonlight Love
TTITLE12=Near You
TTITLE13=It's All In The Game
TTITLE14=Tchaikovsky Piano Concerto # 1 
TTITLE15=Deep Purple
TTITLE16=Young And Warm And Wonderful
TTITLE17=St. Louis Blues
TTITLE18=The World Outside
TTITLE19=Catch A Falling Star
TTITLE20=September Song
TTITLE21=Driftwood
TTITLE22=Indiscreet
TTITLE23=Volare
EXTD=
EXTT0=
EXTT1=
EXTT2=
EXTT3=
EXTT4=
EXTT5=
EXTT6=
EXTT7=
EXTT8=
EXTT9=
EXTT10=
EXTT11=
EXTT12=
EXTT13=
EXTT14=
EXTT15=
EXTT16=
EXTT17=
EXTT18=
EXTT19=
EXTT20=
EXTT21=
EXTT22=
EXTT23=
PLAYORDER=
